<svg xmlns="http://www.w3.org/2000/svg" xmlns:xlink="http://www.w3.org/1999/xlink" width="500" zoomAndPan="magnify" viewBox="0 0 375 374.999991" height="500" preserveAspectRatio="xMidYMid meet" version="1.0"><defs><g/><clipPath id="id1"><path d="M 56.53125 109 L 144 109 L 144 216 L 56.53125 216 Z M 56.53125 109 " clip-rule="nonzero"/></clipPath></defs><path fill="rgb(31.759644%, 7.449341%, 62.348938%)" d="M 290.410156 119.234375 C 296.492188 124.128906 311.21875 140.519531 302.007812 153.949219 C 298.917969 158.453125 284.578125 169.460938 270.714844 180.109375 C 235.800781 206.914062 218.222656 221.558594 218.125 231.46875 L 156.886719 231.46875 C 159.890625 230.691406 162.722656 229.511719 165.386719 227.917969 C 168.050781 226.328125 170.4375 224.390625 172.542969 222.113281 C 173.078125 221.445312 173.523438 220.71875 173.882812 219.945312 C 174.246094 219.167969 174.507812 218.359375 174.671875 217.515625 C 174.835938 216.675781 174.898438 215.828125 174.859375 214.972656 C 174.820312 214.117188 174.679688 213.28125 174.4375 212.457031 C 173.832031 210.375 173.09375 208.25 172.378906 206.207031 C 168.09375 193.929688 164.710938 184.226562 181.988281 175.589844 C 189.316406 171.445312 196.21875 166.6875 202.695312 161.3125 C 209.175781 155.941406 215.128906 150.039062 220.554688 143.605469 C 226.058594 137.367188 238.097656 122.71875 240.203125 112.007812 C 242.296875 111.394531 244.414062 110.894531 246.5625 110.507812 C 248.710938 110.121094 250.871094 109.847656 253.046875 109.691406 C 255.222656 109.539062 257.402344 109.5 259.582031 109.578125 C 261.761719 109.65625 263.933594 109.847656 266.09375 110.160156 C 268.253906 110.472656 270.390625 110.898438 272.503906 111.4375 C 274.617188 111.976562 276.695312 112.628906 278.738281 113.390625 C 280.785156 114.152344 282.78125 115.023438 284.730469 116 C 286.683594 116.976562 288.574219 118.054688 290.410156 119.234375 Z M 290.410156 119.234375 " fill-opacity="1" fill-rule="nonzero"/><path fill="rgb(31.759644%, 7.449341%, 62.348938%)" d="M 172.402344 62.03125 C 174.109375 62.039062 175.8125 62.117188 177.511719 62.269531 C 179.210938 62.417969 180.902344 62.636719 182.585938 62.929688 C 184.265625 63.21875 185.933594 63.582031 187.585938 64.011719 C 189.238281 64.441406 190.867188 64.9375 192.480469 65.503906 C 194.089844 66.070312 195.671875 66.703125 197.230469 67.402344 C 198.789062 68.097656 200.316406 68.859375 201.808594 69.6875 C 203.304688 70.511719 204.761719 71.398438 206.179688 72.34375 C 207.601562 73.292969 208.980469 74.296875 210.316406 75.355469 C 211.652344 76.417969 212.941406 77.535156 214.1875 78.703125 C 215.429688 79.871094 216.621094 81.089844 217.765625 82.359375 C 218.90625 83.628906 219.992188 84.941406 221.027344 86.300781 C 222.058594 87.660156 223.03125 89.0625 223.949219 90.503906 C 224.863281 91.941406 225.71875 93.417969 226.511719 94.929688 C 227.304688 96.441406 228.03125 97.984375 228.695312 99.554688 C 229.359375 101.128906 229.957031 102.726562 230.488281 104.347656 C 231.019531 105.96875 231.480469 107.613281 231.875 109.273438 C 231.699219 113.621094 226.15625 124.242188 214.101562 137.925781 C 209.039062 143.941406 203.492188 149.460938 197.453125 154.492188 C 191.414062 159.523438 184.980469 163.984375 178.148438 167.878906 C 154.089844 179.90625 159.964844 196.742188 164.253906 209.039062 C 164.964844 211.078125 165.632812 213 166.175781 214.863281 C 166.285156 215.230469 166.292969 215.601562 166.199219 215.972656 C 166.109375 216.34375 165.925781 216.667969 165.65625 216.9375 C 163.035156 220.433594 154.148438 224.011719 141.882812 226.519531 C 129.785156 228.894531 117.566406 230.125 105.234375 230.203125 C 104.042969 229.957031 102.867188 229.675781 101.730469 229.367188 C 91.875 224.265625 86.554688 219.378906 85.453125 214.4375 C 84.484375 210.066406 86.675781 204.640625 92.339844 197.363281 C 96.195312 192.402344 105.273438 186.773438 114.886719 180.820312 C 133.753906 169.125 155.140625 155.875 151.738281 138.339844 C 151.375 135.664062 150.769531 133.042969 149.925781 130.480469 C 149.078125 127.917969 148.007812 125.453125 146.710938 123.085938 C 145.414062 120.71875 143.910156 118.488281 142.203125 116.394531 C 140.496094 114.304688 138.617188 112.386719 136.558594 110.640625 C 133.421875 108.277344 130.035156 106.355469 126.402344 104.871094 C 122.769531 103.386719 119.007812 102.390625 115.113281 101.878906 C 115.65625 100.429688 116.25 99 116.902344 97.597656 C 117.550781 96.191406 118.25 94.8125 119.003906 93.460938 C 119.757812 92.109375 120.5625 90.789062 121.414062 89.5 C 122.269531 88.207031 123.171875 86.953125 124.121094 85.730469 C 125.070312 84.507812 126.0625 83.324219 127.101562 82.175781 C 128.140625 81.027344 129.21875 79.921875 130.34375 78.859375 C 131.464844 77.792969 132.625 76.769531 133.828125 75.792969 C 135.027344 74.816406 136.261719 73.886719 137.53125 73.003906 C 138.800781 72.121094 140.105469 71.285156 141.4375 70.5 C 142.769531 69.714844 144.132812 68.980469 145.519531 68.300781 C 146.910156 67.617188 148.324219 66.988281 149.761719 66.414062 C 151.195312 65.839844 152.652344 65.320312 154.128906 64.855469 C 155.605469 64.390625 157.097656 63.984375 158.601562 63.632812 C 160.109375 63.28125 161.628906 62.988281 163.15625 62.75 C 164.6875 62.511719 166.222656 62.335938 167.765625 62.214844 C 169.308594 62.09375 170.855469 62.035156 172.402344 62.03125 Z M 172.402344 62.03125 " fill-opacity="1" fill-rule="nonzero"/><g clip-path="url(#id1)"><path fill="rgb(31.759644%, 7.449341%, 62.348938%)" d="M 56.53125 170.335938 C 56.535156 168.507812 56.621094 166.683594 56.785156 164.859375 C 56.953125 163.039062 57.199219 161.226562 57.527344 159.425781 C 57.855469 157.625 58.265625 155.84375 58.753906 154.082031 C 59.242188 152.320312 59.808594 150.582031 60.453125 148.867188 C 61.097656 147.15625 61.816406 145.476562 62.613281 143.828125 C 63.40625 142.179688 64.273438 140.570312 65.214844 139 C 66.152344 137.429688 67.160156 135.90625 68.238281 134.425781 C 69.3125 132.945312 70.453125 131.519531 71.660156 130.140625 C 72.863281 128.761719 74.125 127.441406 75.449219 126.179688 C 76.773438 124.914062 78.148438 123.710938 79.578125 122.570312 C 81.011719 121.429688 82.488281 120.355469 84.015625 119.347656 C 85.542969 118.339844 87.113281 117.402344 88.722656 116.535156 C 90.335938 115.667969 91.980469 114.875 93.664062 114.15625 C 95.347656 113.4375 97.058594 112.796875 98.796875 112.230469 C 100.539062 111.664062 102.300781 111.175781 104.082031 110.769531 C 105.867188 110.359375 107.664062 110.035156 109.476562 109.789062 C 129.742188 111.996094 139.550781 120.769531 143.273438 139.976562 C 145.542969 151.667969 126.839844 163.265625 110.339844 173.488281 C 100.046875 179.867188 90.332031 185.890625 85.546875 192.070312 C 78.21875 201.492188 75.566406 208.871094 76.980469 215.925781 C 75.378906 214.492188 73.859375 212.984375 72.414062 211.394531 C 70.972656 209.804688 69.621094 208.144531 68.351562 206.410156 C 67.085938 204.679688 65.914062 202.886719 64.832031 201.03125 C 63.753906 199.175781 62.777344 197.265625 61.898438 195.308594 C 61.019531 193.351562 60.246094 191.351562 59.578125 189.3125 C 58.910156 187.273438 58.351562 185.203125 57.898438 183.105469 C 57.449219 181.007812 57.109375 178.890625 56.882812 176.757812 C 56.652344 174.625 56.535156 172.484375 56.53125 170.335938 Z M 56.53125 170.335938 " fill-opacity="1" fill-rule="nonzero"/></g><path fill="rgb(31.759644%, 7.449341%, 62.348938%)" d="M 263.367188 231.46875 L 229.492188 231.46875 C 228.585938 231.433594 227.699219 231.285156 226.832031 231.023438 C 227.246094 229.621094 229.527344 225.109375 241.914062 214.183594 C 251.59375 205.648438 264.542969 195.707031 275.972656 186.933594 C 294.128906 172.988281 305.441406 164.171875 309.121094 158.808594 C 310.394531 156.984375 311.402344 155.023438 312.148438 152.925781 C 312.894531 150.832031 313.351562 148.675781 313.519531 146.457031 C 313.992188 147.558594 314.429688 148.671875 314.835938 149.796875 C 315.242188 150.921875 315.617188 152.058594 315.957031 153.203125 C 316.296875 154.351562 316.601562 155.507812 316.875 156.671875 C 317.148438 157.839844 317.386719 159.011719 317.589844 160.1875 C 317.792969 161.367188 317.960938 162.550781 318.09375 163.742188 C 318.230469 164.929688 318.328125 166.121094 318.390625 167.316406 C 318.457031 168.511719 318.484375 169.707031 318.480469 170.902344 C 318.472656 172.101562 318.429688 173.296875 318.355469 174.488281 C 318.277344 175.683594 318.167969 176.875 318.023438 178.0625 C 317.875 179.25 317.695312 180.429688 317.480469 181.609375 C 317.265625 182.785156 317.015625 183.953125 316.730469 185.117188 C 316.445312 186.28125 316.128906 187.433594 315.777344 188.574219 C 315.425781 189.71875 315.039062 190.851562 314.621094 191.972656 C 314.203125 193.09375 313.753906 194.203125 313.269531 195.296875 C 312.785156 196.390625 312.273438 197.46875 311.726562 198.535156 C 311.179688 199.597656 310.601562 200.648438 309.992188 201.675781 C 309.386719 202.707031 308.746094 203.71875 308.082031 204.710938 C 307.414062 205.707031 306.71875 206.679688 305.992188 207.628906 C 305.269531 208.582031 304.515625 209.511719 303.738281 210.421875 C 302.957031 211.328125 302.152344 212.214844 301.324219 213.074219 C 300.492188 213.9375 299.636719 214.773438 298.757812 215.582031 C 297.875 216.394531 296.972656 217.175781 296.046875 217.933594 C 295.121094 218.691406 294.175781 219.421875 293.207031 220.125 C 292.238281 220.828125 291.25 221.5 290.238281 222.144531 C 289.230469 222.789062 288.207031 223.402344 287.160156 223.988281 C 286.117188 224.570312 285.054688 225.125 283.980469 225.644531 C 282.902344 226.167969 281.8125 226.65625 280.707031 227.113281 C 279.601562 227.574219 278.484375 227.996094 277.351562 228.390625 C 276.222656 228.78125 275.082031 229.140625 273.929688 229.464844 C 272.777344 229.789062 271.617188 230.082031 270.449219 230.339844 C 269.28125 230.597656 268.105469 230.820312 266.925781 231.007812 C 265.742188 231.195312 264.554688 231.347656 263.367188 231.46875 Z M 263.367188 231.46875 " fill-opacity="1" fill-rule="nonzero"/><g fill="rgb(0%, 0%, 0%)" fill-opacity="1"><g transform="translate(100.810234, 296.815019)"><g><path d="M 11.632812 0 L 11.632812 -17.449219 L 17.851562 -17.449219 L 17.851562 -22.078125 L 0.230469 -22.078125 L 0.230469 -17.449219 L 6.453125 -17.449219 L 6.453125 0 Z M 11.632812 0 "/></g></g></g><g fill="rgb(0%, 0%, 0%)" fill-opacity="1"><g transform="translate(118.893864, 296.815019)"><g><path d="M 9.492188 0.347656 C 14.121094 0.347656 16.636719 -2.429688 17.5625 -5.671875 L 12.675781 -5.671875 C 12.269531 -4.660156 11.226562 -3.820312 9.75 -3.820312 C 8.535156 -3.820312 7.550781 -4.195312 6.859375 -5.0625 C 6.453125 -5.554688 6.132812 -6.367188 6.019531 -7.175781 L 17.824219 -7.175781 L 17.824219 -8.015625 C 17.824219 -14.351562 13.65625 -16.753906 9.347656 -16.753906 C 3.414062 -16.753906 0.925781 -12.238281 0.925781 -8.074219 C 0.925781 -3.210938 4.28125 0.347656 9.492188 0.347656 Z M 6.164062 -10.621094 C 6.222656 -10.996094 6.367188 -11.546875 6.914062 -12.09375 C 7.609375 -12.789062 8.535156 -13.050781 9.519531 -13.050781 C 10.503906 -13.050781 11.429688 -12.789062 12.125 -12.09375 C 12.644531 -11.574219 12.820312 -10.996094 12.90625 -10.621094 Z M 6.164062 -10.621094 "/></g></g></g><g fill="rgb(0%, 0%, 0%)" fill-opacity="1"><g transform="translate(137.642971, 296.815019)"><g><path d="M 9.460938 0.347656 C 13.570312 0.347656 16.726562 -1.878906 17.535156 -5.671875 L 12.238281 -5.671875 C 11.921875 -4.3125 11.109375 -3.53125 9.460938 -3.53125 C 7.292969 -3.53125 5.933594 -5.324219 5.933594 -8.304688 C 5.933594 -11.167969 7.292969 -12.90625 9.460938 -12.90625 C 10.910156 -12.90625 11.746094 -12.269531 12.183594 -10.9375 L 17.507812 -10.9375 C 16.667969 -14.496094 13.601562 -16.753906 9.460938 -16.753906 C 4.3125 -16.753906 0.925781 -13.339844 0.925781 -8.304688 C 0.925781 -3.066406 4.339844 0.347656 9.460938 0.347656 Z M 9.460938 0.347656 "/></g></g></g><g fill="rgb(0%, 0%, 0%)" fill-opacity="1"><g transform="translate(155.958082, 296.815019)"><g><path d="M 6.453125 0 L 6.453125 -9.230469 C 6.453125 -10.648438 6.65625 -11.457031 7.058594 -12.007812 C 7.496094 -12.617188 8.21875 -12.847656 9.230469 -12.847656 C 10.039062 -12.847656 10.621094 -12.675781 11.023438 -12.238281 C 11.515625 -11.71875 11.71875 -10.851562 11.71875 -9.230469 L 11.71875 0 L 16.582031 0 L 16.582031 -9.171875 C 16.582031 -11.199219 16.582031 -12.5 15.945312 -13.917969 C 15.277344 -15.421875 13.890625 -16.753906 10.648438 -16.753906 C 8.914062 -16.753906 7.550781 -16.289062 6.453125 -14.640625 L 6.453125 -22.078125 L 1.589844 -22.078125 L 1.589844 0 Z M 6.453125 0 "/></g></g></g><g fill="rgb(0%, 0%, 0%)" fill-opacity="1"><g transform="translate(174.012779, 296.815019)"><g/></g></g><g fill="rgb(0%, 0%, 0%)" fill-opacity="1"><g transform="translate(181.535568, 296.815019)"><g><path d="M 6.914062 0 L 6.914062 -8.710938 L 15.308594 -8.710938 L 15.308594 0 L 20.488281 0 L 20.488281 -22.078125 L 15.308594 -22.078125 L 15.308594 -13.339844 L 6.914062 -13.339844 L 6.914062 -22.078125 L 1.734375 -22.078125 L 1.734375 0 Z M 6.914062 0 "/></g></g></g><g fill="rgb(0%, 0%, 0%)" fill-opacity="1"><g transform="translate(203.814605, 296.815019)"><g><path d="M 9.546875 0.347656 C 14.757812 0.347656 18.171875 -3.097656 18.171875 -8.304688 C 18.171875 -13.308594 14.699219 -16.753906 9.546875 -16.753906 C 4.398438 -16.753906 0.925781 -13.339844 0.925781 -8.304688 C 0.925781 -3.066406 4.425781 0.347656 9.546875 0.347656 Z M 9.546875 -3.820312 C 7.378906 -3.820312 5.933594 -5.554688 5.933594 -8.304688 C 5.933594 -10.878906 7.378906 -12.617188 9.546875 -12.617188 C 11.746094 -12.617188 13.109375 -10.851562 13.109375 -8.304688 C 13.109375 -5.613281 11.746094 -3.820312 9.546875 -3.820312 Z M 9.546875 -3.820312 "/></g></g></g><g fill="rgb(0%, 0%, 0%)" fill-opacity="1"><g transform="translate(222.910925, 296.815019)"><g><path d="M 7.40625 0.347656 C 9.375 0.347656 10.621094 -0.289062 11.601562 -1.765625 L 11.601562 0 L 16.464844 0 L 16.464844 -16.40625 L 11.601562 -16.40625 L 11.601562 -7.175781 C 11.601562 -5.816406 11.429688 -4.976562 10.996094 -4.398438 C 10.5625 -3.847656 9.894531 -3.558594 8.824219 -3.558594 C 7.984375 -3.558594 7.40625 -3.761719 7.03125 -4.167969 C 6.539062 -4.6875 6.335938 -5.554688 6.335938 -7.175781 L 6.335938 -16.40625 L 1.476562 -16.40625 L 1.476562 -7.234375 C 1.476562 -4.570312 1.589844 -3.617188 2.113281 -2.488281 C 2.953125 -0.609375 4.714844 0.347656 7.40625 0.347656 Z M 7.40625 0.347656 "/></g></g></g><g fill="rgb(0%, 0%, 0%)" fill-opacity="1"><g transform="translate(240.965622, 296.815019)"><g><path d="M 8.96875 0.347656 C 13.339844 0.347656 16 -1.851562 16 -5.121094 C 16 -8.941406 12.414062 -9.605469 9.546875 -10.128906 C 7.667969 -10.476562 6.105469 -10.765625 6.105469 -11.863281 C 6.105469 -12.617188 6.886719 -13.109375 8.074219 -13.109375 C 9.316406 -13.109375 10.5625 -12.527344 11.023438 -10.964844 L 15.625 -10.964844 C 15.019531 -14.699219 12.09375 -16.753906 8.101562 -16.753906 C 4.6875 -16.753906 1.503906 -15.363281 1.503906 -11.746094 C 1.503906 -7.871094 5.035156 -7.148438 7.839844 -6.597656 C 9.695312 -6.222656 11.226562 -5.902344 11.226562 -4.804688 C 11.226562 -3.878906 10.214844 -3.328125 8.914062 -3.328125 C 7.523438 -3.328125 6.105469 -4.023438 5.554688 -5.671875 L 0.839844 -5.671875 C 1.390625 -1.097656 5.527344 0.347656 8.96875 0.347656 Z M 8.96875 0.347656 "/></g></g></g><g fill="rgb(0%, 0%, 0%)" fill-opacity="1"><g transform="translate(257.978712, 296.815019)"><g><path d="M 9.492188 0.347656 C 14.121094 0.347656 16.636719 -2.429688 17.5625 -5.671875 L 12.675781 -5.671875 C 12.269531 -4.660156 11.226562 -3.820312 9.75 -3.820312 C 8.535156 -3.820312 7.550781 -4.195312 6.859375 -5.0625 C 6.453125 -5.554688 6.132812 -6.367188 6.019531 -7.175781 L 17.824219 -7.175781 L 17.824219 -8.015625 C 17.824219 -14.351562 13.65625 -16.753906 9.347656 -16.753906 C 3.414062 -16.753906 0.925781 -12.238281 0.925781 -8.074219 C 0.925781 -3.210938 4.28125 0.347656 9.492188 0.347656 Z M 6.164062 -10.621094 C 6.222656 -10.996094 6.367188 -11.546875 6.914062 -12.09375 C 7.609375 -12.789062 8.535156 -13.050781 9.519531 -13.050781 C 10.503906 -13.050781 11.429688 -12.789062 12.125 -12.09375 C 12.644531 -11.574219 12.820312 -10.996094 12.90625 -10.621094 Z M 6.164062 -10.621094 "/></g></g></g></svg>